
<svg width="25" height="24" viewBox="0 0 25 24" fill="none" xmlns="http://www.w3.org/2000/svg">
<g clip-path="url(#clip0_1424_3705)">
<path d="M15.0053 24C15.8077 24 16.5075 23.3002 16.5075 22.4978V18.9894H17.5106C18.1125 18.9894 18.5137 18.5881 18.5137 17.9863V7.96582H6.48633V17.9864C6.48633 18.5882 6.88756 18.9895 7.4894 18.9895H8.49256V22.4978C8.49256 23.3003 9.19218 24.0001 9.9948 24.0001C10.7972 24.0001 11.4969 23.3003 11.4969 22.4978V18.9895H13.5031V22.4978C13.503 23.3002 14.2028 24 15.0053 24Z" fill="white"/>
<path d="M21.0191 17.9864C21.8215 17.9864 22.5212 17.2867 22.5212 16.4841V9.46743C22.5212 8.66921 21.8215 7.96582 21.0191 7.96582C20.2165 7.96582 19.5168 8.66921 19.5168 9.46743V16.4841C19.5168 17.2866 20.2165 17.9864 21.0191 17.9864Z" fill="white"/>
<path d="M3.98101 17.9864C4.78355 17.9864 5.48325 17.2867 5.48325 16.4841V9.46743C5.48325 8.66921 4.78363 7.96582 3.98101 7.96582C3.17855 7.96582 2.47892 8.66921 2.47892 9.46743V16.4841C2.47892 17.2866 3.17855 17.9864 3.98101 17.9864Z" fill="white"/>
<path d="M17.3099 0.151362C17.1094 -0.050454 16.8108 -0.050454 16.6103 0.151362L15.2649 1.49224L15.2029 1.55422C14.4051 1.15476 13.5107 0.955262 12.5147 0.95334C12.5098 0.95334 12.505 0.95318 12.5001 0.95318H12.5C12.4949 0.95318 12.4903 0.95334 12.4852 0.95334C11.4893 0.955262 10.5949 1.15476 9.79723 1.55422L9.735 1.49224L8.38972 0.151362C8.18903 -0.050454 7.89063 -0.050454 7.6901 0.151362C7.4894 0.352057 7.4894 0.649895 7.6901 0.85043L8.99149 2.15206C8.57216 2.43204 8.19191 2.77465 7.86124 3.16651C7.06959 4.10487 6.56465 5.3261 6.49522 6.64927C6.49458 6.66305 6.49322 6.67666 6.49258 6.69044C6.48833 6.78054 6.48633 6.87111 6.48633 6.96201H18.5137C18.5137 6.87111 18.5115 6.78054 18.5074 6.69044C18.5068 6.67666 18.5054 6.66305 18.5046 6.64927C18.4354 5.3261 17.9303 4.10479 17.1386 3.16659C16.8081 2.77473 16.4277 2.43212 16.0084 2.15214L17.3099 0.85051C17.5106 0.649895 17.5106 0.352057 17.3099 0.151362ZM9.99288 5.21062C9.57788 5.21062 9.24144 4.87418 9.24144 4.45917C9.24144 4.04417 9.57788 3.70773 9.99288 3.70773C10.4079 3.70773 10.7443 4.04417 10.7443 4.45917C10.7443 4.87418 10.4079 5.21062 9.99288 5.21062ZM15.0071 5.21062C14.5921 5.21062 14.2557 4.87418 14.2557 4.45917C14.2557 4.04417 14.5921 3.70773 15.0071 3.70773C15.4221 3.70773 15.7586 4.04417 15.7586 4.45917C15.7586 4.87418 15.4221 5.21062 15.0071 5.21062Z" fill="white"/>
</g>
<defs>
<clipPath id="clip0_1424_3705">
<rect width="24" height="24" fill="white" transform="translate(0.5)"/>
</clipPath>
</defs>
</svg>
