
<svg width="25" height="24" viewBox="0 0 25 24" fill="none" xmlns="http://www.w3.org/2000/svg">
<path d="M19.0504 12.7512C19.0191 9.70987 21.53 8.25443 21.6413 8.1814C20.2311 6.12082 18.0366 5.83739 17.2524 5.80609C15.3865 5.61481 13.6077 6.90506 12.6582 6.90506C11.7123 6.90506 10.2482 5.83217 8.69881 5.85999C6.66085 5.89129 4.7846 7.04591 3.73432 8.86825C1.6181 12.5408 3.19179 17.98 5.2541 20.9622C6.26265 22.4193 7.46595 24.0556 9.04311 23.9982C10.5629 23.9374 11.1367 23.014 12.9747 23.014C14.8127 23.014 15.3292 23.9982 16.9359 23.9687C18.5722 23.9374 19.6068 22.4819 20.6067 21.0213C21.7647 19.3293 22.2412 17.6896 22.2708 17.6079C22.2325 17.587 19.0834 16.3819 19.0504 12.7512Z" fill="white"/>
<path d="M16.0282 3.83249C16.8646 2.81872 17.4315 1.40675 17.2767 0C16.0682 0.0486886 14.6093 0.801623 13.7416 1.81713C12.9643 2.71613 12.2879 4.1507 12.4687 5.52963C13.8146 5.63571 15.1918 4.84452 16.0282 3.83249Z" fill="white"/>
</svg>
