<svg
              width={28}
              height={29}
              viewBox="0 0 28 29"
              fill="none"
              xmlns="http://www.w3.org/2000/svg"
              className="w-7 h-7"
              preserveAspectRatio="xMidYMid meet"
            >
              <path
                opacity="0.4"
                d="M22.5633 17.405L21.3967 15.4683C21.1517 15.0366 20.93 14.22 20.93 13.7416V10.79C20.93 6.98663 17.8383 3.8833 14.0233 3.8833C10.2083 3.8833 7.11668 6.98663 7.11668 10.79V13.7416C7.11668 14.22 6.89501 15.0366 6.65001 15.4566L5.47168 17.405C5.00501 18.1866 4.90001 19.05 5.19168 19.8433C5.47168 20.625 6.13668 21.2316 7.00001 21.5233C9.26335 22.2933 11.6433 22.6666 14.0233 22.6666C16.4033 22.6666 18.7833 22.2933 21.0467 21.535C21.8633 21.2666 22.4933 20.6483 22.7967 19.8433C23.1 19.0383 23.0183 18.1516 22.5633 17.405Z"
                fill="#808080"
              />
              <path
                d="M16.625 4.37325C15.82 4.05825 14.945 3.88325 14.0234 3.88325C13.1134 3.88325 12.2383 4.04659 11.4333 4.37325C11.935 3.42825 12.9267 2.83325 14.0234 2.83325C15.1317 2.83325 16.1117 3.42825 16.625 4.37325Z"
                fill="#808080"
              />
              <path
                d="M17.3016 23.8449C16.8116 25.1983 15.5166 26.1666 14 26.1666C13.0783 26.1666 12.1683 25.7933 11.5266 25.1283C11.1533 24.7783 10.8733 24.3116 10.71 23.8333C10.8616 23.8566 11.0133 23.8683 11.1766 23.8916C11.445 23.9266 11.725 23.9616 12.005 23.9849C12.67 24.0433 13.3466 24.0783 14.0233 24.0783C14.6883 24.0783 15.3533 24.0433 16.0066 23.9849C16.2516 23.9616 16.4966 23.9499 16.73 23.9149C16.9166 23.8916 17.1033 23.8683 17.3016 23.8449Z"
                fill="#808080"
              />
              <circle cx={20} cy={9} r="5.5" fill="#C20052" stroke="white" />
            </svg>