 <svg
                    viewBox="0 0 15 15"
                    fill="none"
                    xmlns="http://www.w3.org/2000/svg"
                    preserveAspectRatio="xMidYMid meet"
                  >
                    <path
                      fill-rule="evenodd"
                      clip-rule="evenodd"
                      d="M2.29239 6.04239C1.93112 6.40366 1.71875 7.01498 1.71875 8.0625V10.6875C1.71875 11.735 1.93112 12.3463 2.29239 12.7076C2.65366 13.0689 3.26498 13.2812 4.3125 13.2812H6.9375C7.98502 13.2812 8.59634 13.0689 8.95761 12.7076C9.31888 12.3463 9.53125 11.735 9.53125 10.6875V8.0625C9.53125 7.01498 9.31888 6.40366 8.95761 6.04239C8.59634 5.68112 7.98502 5.46875 6.9375 5.46875H4.3125C3.26498 5.46875 2.65366 5.68112 2.29239 6.04239ZM1.62948 5.37948C2.25259 4.75638 3.17252 4.53125 4.3125 4.53125H6.9375C8.07748 4.53125 8.99741 4.75638 9.62052 5.37948C10.2436 6.00259 10.4688 6.92252 10.4688 8.0625V10.6875C10.4688 11.8275 10.2436 12.7474 9.62052 13.3705C8.99741 13.9936 8.07748 14.2188 6.9375 14.2188H4.3125C3.17252 14.2188 2.25259 13.9936 1.62948 13.3705C1.00638 12.7474 0.78125 11.8275 0.78125 10.6875V8.0625C0.78125 6.92252 1.00638 6.00259 1.62948 5.37948Z"
                      fill="#EEFF41"
                    />
                    <path
                      opacity="0.4"
                      fill-rule="evenodd"
                      clip-rule="evenodd"
                      d="M6.04239 2.29239C5.68112 2.65366 5.46875 3.26498 5.46875 4.3125V4.53125H6.9375C8.07748 4.53125 8.99741 4.75638 9.62052 5.37948C10.2436 6.00259 10.4688 6.92252 10.4688 8.0625V9.53125H10.6875C11.735 9.53125 12.3463 9.31888 12.7076 8.95761C13.0689 8.59634 13.2812 7.98502 13.2812 6.9375V4.3125C13.2812 3.26498 13.0689 2.65366 12.7076 2.29239C12.3463 1.93112 11.735 1.71875 10.6875 1.71875H8.0625C7.01498 1.71875 6.40366 1.93112 6.04239 2.29239ZM5.37948 1.62948C6.00259 1.00638 6.92252 0.78125 8.0625 0.78125H10.6875C11.8275 0.78125 12.7474 1.00638 13.3705 1.62948C13.9936 2.25259 14.2188 3.17252 14.2188 4.3125V6.9375C14.2188 8.07748 13.9936 8.99741 13.3705 9.62052C12.7474 10.2436 11.8275 10.4688 10.6875 10.4688H10C9.74112 10.4688 9.53125 10.2589 9.53125 10V8.0625C9.53125 7.01498 9.31888 6.40366 8.95761 6.04239C8.59634 5.68112 7.98502 5.46875 6.9375 5.46875H5C4.74112 5.46875 4.53125 5.25888 4.53125 5V4.3125C4.53125 3.17252 4.75638 2.25259 5.37948 1.62948Z"
                      fill="#EEFF41"
                    />
                  </svg>