 <svg
                viewBox="0 0 20 21"
                fill="none"
                xmlns="http://www.w3.org/2000/svg"
                className="flex-grow-0 flex-shrink-0 w-5 h-5"
                preserveAspectRatio="xMidYMid meet"
              >
                <path
                  d="M7.5 16.3334C7.5 17.0334 7.60833 17.7167 7.80833 18.3501C4.60833 17.2417 2.19167 14.3001 1.94167 10.8584C1.69167 7.20006 3.8 3.78339 7.20833 2.35006C8.09167 1.98339 8.54167 2.25006 8.73333 2.44172C8.91667 2.62506 9.175 3.06672 8.80833 3.90839C8.43333 4.77506 8.25 5.69172 8.25 6.64172C8.25833 8.34172 8.925 9.91672 10.0083 11.1251C8.48333 12.3417 7.5 14.2251 7.5 16.3334Z"
                  fill="#2C2C2C"
                />
                <path
                  opacity="0.4"
                  d="M17.675 15.2667C16.025 17.5083 13.4083 18.825 10.6167 18.825C10.4833 18.825 10.35 18.8167 10.2167 18.8083C9.38333 18.775 8.575 18.6167 7.80833 18.35C7.60833 17.7167 7.5 17.0333 7.5 16.3333C7.5 14.225 8.48333 12.3417 10.0083 11.125C11.2333 12.5 12.9917 13.3917 14.9333 13.475C15.4583 13.5 15.9833 13.4583 16.5 13.3667C17.4333 13.2 17.8083 13.55 17.9417 13.775C18.0833 14 18.2333 14.4917 17.675 15.2667Z"
                  fill="#2C2C2C"
                />
              </svg>