 <svg
          viewBox="0 0 30 30"
          fill="none"
          xmlns="http://www.w3.org/2000/svg"
          preserveAspectRatio="xMidYMid meet"
        >
          <path
            opacity="0.4"
            d="M12.5876 3.52507L3.92509 10.4626C2.95009 11.2376 2.32509 12.8751 2.53759 14.1001L4.20009 24.05C4.50009 25.825 6.20008 27.2626 8.00008 27.2626H22.0001C23.7876 27.2626 25.5001 25.8125 25.8001 24.05L27.4626 14.1001C27.6626 12.8751 27.0376 11.2376 26.0751 10.4626L17.4126 3.53754C16.0751 2.46254 13.9126 2.46257 12.5876 3.52507Z"
            fill="#EEFF41"
          />
          <path
            d="M15 19.375C16.7259 19.375 18.125 17.9759 18.125 16.25C18.125 14.5241 16.7259 13.125 15 13.125C13.2741 13.125 11.875 14.5241 11.875 16.25C11.875 17.9759 13.2741 19.375 15 19.375Z"
            fill="#EEFF41"
          />
        </svg>