<svg
          viewBox="0 0 30 30"
          fill="none"
          xmlns="http://www.w3.org/2000/svg"
          preserveAspectRatio="xMidYMid meet"
        >
          <path
            opacity="0.4"
            d="M20.3001 4.5625H9.70005C6.61255 4.5625 4.11255 7.075 4.11255 10.15V21.9125C4.11255 24.9875 6.62505 27.5 9.70005 27.5H20.2875C23.3751 27.5 25.8751 24.9875 25.8751 21.9125V10.15C25.8876 7.0625 23.3751 4.5625 20.3001 4.5625Z"
            fill="#808080"
          />
          <path
            d="M17.9375 2.5H12.0625C10.7625 2.5 9.69995 3.55 9.69995 4.85V6.025C9.69995 7.325 10.75 8.375 12.05 8.375H17.9375C19.2375 8.375 20.2875 7.325 20.2875 6.025V4.85C20.3 3.55 19.2375 2.5 17.9375 2.5Z"
            fill="#808080"
          />
          <path
            d="M18.75 16.1875H10C9.4875 16.1875 9.0625 15.7625 9.0625 15.25C9.0625 14.7375 9.4875 14.3125 10 14.3125H18.75C19.2625 14.3125 19.6875 14.7375 19.6875 15.25C19.6875 15.7625 19.2625 16.1875 18.75 16.1875Z"
            fill="#808080"
          />
          <path
            d="M15.475 21.1875H10C9.4875 21.1875 9.0625 20.7625 9.0625 20.25C9.0625 19.7375 9.4875 19.3125 10 19.3125H15.475C15.9875 19.3125 16.4125 19.7375 16.4125 20.25C16.4125 20.7625 15.9875 21.1875 15.475 21.1875Z"
            fill="#808080"
          />
        </svg>