
<svg width="20" height="20" viewBox="0 0 20 20" fill="none" xmlns="http://www.w3.org/2000/svg">
<path opacity="0.4" d="M7 5.2V14.79C7 18 9 20 12.2 20H14.79C17.99 20 19.99 18 19.99 14.8V5.2C20 2 18 0 14.8 0H12.2C9 0 7 2 7 5.2Z" fill="#C20052"/>
<path d="M3.56994 6.12002L0.219941 9.47002C-0.0700586 9.76002 -0.0700586 10.24 0.219941 10.53L3.56994 13.88C3.85994 14.17 4.33994 14.17 4.62994 13.88C4.91994 13.59 4.91994 13.11 4.62994 12.82L2.55994 10.75H13.2499C13.6599 10.75 13.9999 10.41 13.9999 10C13.9999 9.59002 13.6599 9.25002 13.2499 9.25002H2.55994L4.62994 7.18002C4.77994 7.03002 4.84994 6.84002 4.84994 6.65002C4.84994 6.46002 4.77994 6.26002 4.62994 6.12002C4.33994 5.82002 3.86994 5.82002 3.56994 6.12002Z" fill="#C20052"/>
</svg>
