<svg width="39" height="33" viewBox="0 0 39 33" fill="none" xmlns="http://www.w3.org/2000/svg">
<path opacity="0.4" d="M33.1875 8.84997V18.5063C33.1875 24.2813 29.8875 26.7562 24.9375 26.7562H8.45623C7.61248 26.7562 6.80623 26.6813 6.05623 26.5126C5.58748 26.4376 5.13749 26.3063 4.72499 26.1563C1.91249 25.1063 0.206238 22.6688 0.206238 18.5063V8.84997C0.206238 3.07497 3.50623 0.600037 8.45623 0.600037H24.9375C29.1375 0.600037 32.1562 2.38128 32.9625 6.45003C33.0937 7.20003 33.1875 7.96872 33.1875 8.84997Z" fill="#7C4DFF"/>
<path d="M38.8125 14.475V24.1312C38.8125 29.9062 35.5125 32.3812 30.5625 32.3812H14.0812C12.6937 32.3812 11.4375 32.1938 10.35 31.7813C8.11874 30.9563 6.59998 29.25 6.05623 26.5125C6.80623 26.6813 7.61248 26.7562 8.45623 26.7562H24.9375C29.8875 26.7562 33.1875 24.2812 33.1875 18.5062V8.84995C33.1875 7.9687 33.1125 7.18126 32.9625 6.45001C36.525 7.20001 38.8125 9.71245 38.8125 14.475Z" fill="#7C4DFF"/>
<path d="M16.6875 18.6375C19.4213 18.6375 21.6375 16.4213 21.6375 13.6875C21.6375 10.9537 19.4213 8.73749 16.6875 8.73749C13.9537 8.73749 11.7375 10.9537 11.7375 13.6875C11.7375 16.4213 13.9537 18.6375 16.6875 18.6375Z" fill="#7C4DFF"/>
<path d="M5.96249 9.46875C5.19374 9.46875 4.55624 10.1063 4.55624 10.875V16.5C4.55624 17.2687 5.19374 17.9062 5.96249 17.9062C6.73124 17.9062 7.36874 17.2687 7.36874 16.5V10.875C7.36874 10.1063 6.74999 9.46875 5.96249 9.46875Z" fill="#7C4DFF"/>
<path d="M27.3937 9.46875C26.625 9.46875 25.9875 10.1063 25.9875 10.875V16.5C25.9875 17.2687 26.625 17.9062 27.3937 17.9062C28.1625 17.9062 28.8 17.2687 28.8 16.5V10.875C28.8 10.1063 28.1812 9.46875 27.3937 9.46875Z" fill="#7C4DFF"/>
</svg>
