<svg
            
            viewBox="0 0 30 30"
            fill="none"
            xmlns="http://www.w3.org/2000/svg"
            preserveAspectRatio="xMidYMid meet"
          >
            <path
              opacity="0.4"
              d="M24.9624 12.5V22.5C24.9624 26.25 23.7124 27.5 19.9624 27.5H9.9624C6.2124 27.5 4.9624 26.25 4.9624 22.5V12.5H24.9624Z"
              fill="#808080"
            />
            <path
              d="M26.875 8.75V10C26.875 11.375 26.2125 12.5 24.375 12.5H5.625C3.7125 12.5 3.125 11.375 3.125 10V8.75C3.125 7.375 3.7125 6.25 5.625 6.25H24.375C26.2125 6.25 26.875 7.375 26.875 8.75Z"
              fill="#808080"
            />
            <path
              opacity="0.4"
              d="M14.55 6.25005H7.64997C7.22497 5.78755 7.23748 5.07505 7.68748 4.62505L9.46248 2.85005C9.92498 2.38755 10.6875 2.38755 11.15 2.85005L14.55 6.25005Z"
              fill="#808080"
            />
            <path
              opacity="0.4"
              d="M22.3375 6.25005H15.4375L18.8375 2.85005C19.3 2.38755 20.0625 2.38755 20.525 2.85005L22.3 4.62505C22.75 5.07505 22.7625 5.78755 22.3375 6.25005Z"
              fill="#808080"
            />
            <path
              opacity="0.6"
              d="M11.175 12.5V18.925C11.175 19.925 12.275 20.5125 13.1125 19.975L14.2875 19.2C14.7125 18.925 15.25 18.925 15.6625 19.2L16.775 19.95C17.6 20.5 18.7125 19.9125 18.7125 18.9125V12.5H11.175Z"
              fill="#808080"
            />
          </svg>