<svg width="37" height="37" viewBox="0 0 37 37" fill="none" xmlns="http://www.w3.org/2000/svg">
<path opacity="0.4" d="M9.33125 7.175L26.2437 1.53125C33.8375 -0.999999 37.9625 3.14375 35.45 10.7375L29.8063 27.65C26.0188 39.0312 19.7938 39.0312 16.0063 27.65L14.3375 22.625L9.3125 20.9563C-2.05 17.1875 -2.05 10.9813 9.33125 7.175Z" fill="#7C4DFF"/>
<path d="M18.725 17.8062L25.8687 10.6437L18.725 17.8062Z" fill="#7C4DFF"/>
<path d="M18.725 19.2125C18.3687 19.2125 18.0125 19.0813 17.7312 18.8C17.1875 18.2563 17.1875 17.3563 17.7312 16.8125L24.8562 9.65C25.4 9.10625 26.3 9.10625 26.8437 9.65C27.3875 10.1938 27.3875 11.0938 26.8437 11.6375L19.7187 18.8C19.4375 19.0625 19.0812 19.2125 18.725 19.2125Z" fill="#7C4DFF"/>
</svg>
