<svg
              viewBox="0 0 30 30"
              fill="none"
              xmlns="http://www.w3.org/2000/svg"
              preserveAspectRatio="xMidYMid meet"
            >
              <path
                d="M27.5 7.5V10.525C27.5 12.5 26.25 13.75 24.275 13.75H20V5.0125C20 3.625 21.1375 2.5 22.525 2.5C23.8875 2.5125 25.1375 3.0625 26.0375 3.9625C26.9375 4.875 27.5 6.125 27.5 7.5Z"
                fill="#808080"
              />
              <path
                opacity="0.4"
                d="M2.5 8.75V26.25C2.5 27.2875 3.67501 27.875 4.50001 27.25L6.6375 25.65C7.1375 25.275 7.83751 25.325 8.28751 25.775L10.3625 27.8625C10.85 28.35 11.65 28.35 12.1375 27.8625L14.2375 25.7625C14.675 25.325 15.375 25.275 15.8625 25.65L18 27.25C18.825 27.8625 20 27.275 20 26.25V5C20 3.625 21.125 2.5 22.5 2.5H8.75H7.5C3.75 2.5 2.5 4.7375 2.5 7.5V8.75Z"
                fill="#808080"
              />
              <path
                d="M15 12.1875H7.5C6.9875 12.1875 6.5625 11.7625 6.5625 11.25C6.5625 10.7375 6.9875 10.3125 7.5 10.3125H15C15.5125 10.3125 15.9375 10.7375 15.9375 11.25C15.9375 11.7625 15.5125 12.1875 15 12.1875Z"
                fill="#808080"
              />
              <path
                d="M14.0625 17.1875H8.4375C7.925 17.1875 7.5 16.7625 7.5 16.25C7.5 15.7375 7.925 15.3125 8.4375 15.3125H14.0625C14.575 15.3125 15 15.7375 15 16.25C15 16.7625 14.575 17.1875 14.0625 17.1875Z"
                fill="#808080"
              />
            </svg>
