  <svg
              viewBox="0 0 39 39"
              fill="none"
              xmlns="http://www.w3.org/2000/svg"
              preserveAspectRatio="none"
            >
              <circle cx="19.5" cy="19.5" r="19.5" fill="#C20052" />
              <path
                d="M24.9247 13.9889L20.5677 12.3569C20.1161 12.1906 19.3794 12.1906 18.9278 12.3569L14.5708 13.9889C13.7311 14.3057 13.0498 15.288 13.0498 16.1832V22.5999C13.0498 23.2416 13.4697 24.0892 13.9846 24.4695L18.3416 27.7254C19.11 28.3037 20.3696 28.3037 21.138 27.7254L25.4951 24.4695C26.01 24.0813 26.4299 23.2416 26.4299 22.5999V16.1832C26.4378 15.288 25.7565 14.3057 24.9247 13.9889ZM22.5006 18.4251L19.0942 21.8315C18.9754 21.9503 18.8249 22.0058 18.6743 22.0058C18.5238 22.0058 18.3733 21.9503 18.2545 21.8315L16.987 20.5482C16.7572 20.3184 16.7572 19.9382 16.987 19.7084C17.2167 19.4787 17.597 19.4787 17.8267 19.7084L18.6823 20.564L21.6688 17.5775C21.8985 17.3477 22.2788 17.3477 22.5085 17.5775C22.7383 17.8072 22.7383 18.1954 22.5006 18.4251Z"
                fill="white"
              />
            </svg>