<svg width="113" height="56" viewBox="0 0 113 56" fill="none" xmlns="http://www.w3.org/2000/svg">
<path d="M0 0.235626L34.4164 7.24856L68.2592 0.235626V55.404L34.4164 48.3911L0 55.404V0.235626Z" fill="#2C2C2C"/>
<path d="M57.6035 48.9401V9.50483L84.684 14.2964L84.9529 14.344L85.2214 14.2937L110.707 9.52297V48.9219L85.2214 44.1512L84.9529 44.1009L84.684 44.1485L57.6035 48.9401Z" fill="#7C4DFF" stroke="#E5DBFF" stroke-width="3"/>
<path d="M19.9548 39.508H10.2856V16.6152H19.5978C22.1287 16.6152 24.0323 17.1849 25.3085 18.3241C26.5847 19.4634 27.2229 20.9681 27.2229 22.8382C27.2229 24.042 26.92 25.0845 26.3144 25.9658C25.7303 26.8471 24.9191 27.5028 23.8808 27.9327C25.0273 28.3196 25.9358 28.9752 26.6064 29.8995C27.2769 30.8023 27.6122 31.8664 27.6122 33.0916C27.6122 35.1122 26.9525 36.6921 25.633 37.8314C24.3135 38.9491 22.4207 39.508 19.9548 39.508ZM19.9223 29.706H14.1468V35.9613H19.8899C22.3991 35.9613 23.6537 34.9187 23.6537 32.8337C23.6537 31.8449 23.3292 31.0818 22.6803 30.5444C22.0314 29.9855 21.112 29.706 19.9223 29.706ZM19.6303 20.162H14.1468V26.127H19.6303C22.053 26.127 23.2643 25.1382 23.2643 23.1606C23.2643 22.2148 22.9615 21.484 22.3558 20.9681C21.7502 20.4307 20.8416 20.162 19.6303 20.162Z" fill="white"/>
<path d="M32.5431 19.9686C31.8293 19.9686 31.2453 19.7536 30.791 19.3237C30.3368 18.8723 30.1096 18.3026 30.1096 17.6148C30.1096 16.9054 30.3368 16.3251 30.791 15.8736C31.2453 15.4222 31.8293 15.1965 32.5431 15.1965C33.2353 15.1965 33.8086 15.4222 34.2628 15.8736C34.7171 16.3251 34.9442 16.9054 34.9442 17.6148C34.9442 18.3026 34.7171 18.8723 34.2628 19.3237C33.8086 19.7536 33.2353 19.9686 32.5431 19.9686ZM30.5963 39.508V22.7737H34.4575V39.508H30.5963Z" fill="white"/>
<path d="M42.0078 39.508H38.1466V15.3255H42.0078V39.508Z" fill="white"/>
<path d="M49.558 39.508H45.6968V15.3255H49.558V39.508Z" fill="white"/>
<path d="M68.2498 35.4684C66.7369 35.4684 65.5988 35.1249 64.8353 34.4379C64.0718 33.7509 63.6547 32.8715 63.584 31.7998H66.0229C66.0512 32.2945 66.2704 32.6929 66.6804 32.9952C67.0904 33.2975 67.663 33.4486 68.3983 33.4486C69.0486 33.4486 69.5506 33.3387 69.904 33.1189C70.2575 32.899 70.4343 32.6036 70.4343 32.2326C70.4343 31.8204 70.2151 31.5181 69.7768 31.3258C69.3526 31.1197 68.8295 30.9685 68.2074 30.8723C67.5853 30.7762 66.9632 30.6525 66.3411 30.5014C65.7189 30.3365 65.1887 30.0205 64.7504 29.5533C64.3263 29.0861 64.1142 28.4472 64.1142 27.6365C64.1142 26.7022 64.5101 25.9121 65.3019 25.2663C66.1078 24.6068 67.1682 24.277 68.4831 24.277C69.2325 24.277 69.8899 24.3938 70.4555 24.6274C71.0352 24.8473 71.4805 25.1427 71.7916 25.5137C72.1168 25.8846 72.3571 26.2625 72.5127 26.6472C72.6823 27.032 72.7813 27.4236 72.8096 27.822H70.3918C70.3494 27.3961 70.1585 27.032 69.8192 26.7297C69.494 26.4274 69.0274 26.2762 68.4195 26.2762C67.8115 26.2762 67.3449 26.393 67.0197 26.6266C66.6945 26.8465 66.5319 27.1556 66.5319 27.5541C66.5319 27.9251 66.744 28.2067 67.1682 28.3991C67.6065 28.5915 68.1367 28.7357 68.7588 28.8319C69.3809 28.9281 70.003 29.0655 70.6251 29.2441C71.2472 29.409 71.7704 29.7319 72.1945 30.2128C72.6328 30.6937 72.852 31.3326 72.852 32.1296C72.852 33.0914 72.449 33.8883 71.6431 34.5204C70.8513 35.1524 69.7202 35.4684 68.2498 35.4684Z" fill="#EEFF41"/>
<path d="M77.0078 33.8196V39.5081H74.484V24.5244H76.8169V26.0495C77.5946 24.8679 78.8317 24.277 80.5284 24.277C82.1119 24.277 83.3562 24.8129 84.261 25.8846C85.1801 26.9564 85.6396 28.2892 85.6396 29.883C85.6396 31.4769 85.1801 32.8097 84.261 33.8815C83.3562 34.9394 82.1119 35.4684 80.5284 35.4684C78.9166 35.4684 77.743 34.9188 77.0078 33.8196ZM76.923 29.883C76.923 30.8723 77.1987 31.6899 77.7501 32.3357C78.3157 32.9815 79.0721 33.3044 80.0194 33.3044C80.9526 33.3044 81.7019 32.9815 82.2675 32.3357C82.833 31.6761 83.1158 30.8586 83.1158 29.883C83.1158 28.88 82.833 28.0487 82.2675 27.3892C81.7019 26.7297 80.9526 26.3999 80.0194 26.3999C79.0721 26.3999 78.3157 26.7297 77.7501 27.3892C77.1987 28.035 76.923 28.8663 76.923 29.883Z" fill="#EEFF41"/>
<path d="M92.3147 35.4684C90.6181 35.4684 89.2395 34.9257 88.1791 33.8402C87.1328 32.7548 86.6097 31.4357 86.6097 29.883C86.6097 28.3304 87.1328 27.0113 88.1791 25.9259C89.2395 24.8267 90.6181 24.277 92.3147 24.277C94.0255 24.277 95.4041 24.8267 96.4503 25.9259C97.5107 27.0113 98.0409 28.3304 98.0409 29.883C98.0409 31.4357 97.5107 32.7548 96.4503 33.8402C95.4041 34.9257 94.0255 35.4684 92.3147 35.4684ZM89.1335 29.883C89.1335 30.8998 89.4304 31.7242 90.0242 32.3563C90.6322 32.9883 91.3957 33.3044 92.3147 33.3044C93.2479 33.3044 94.0114 32.9883 94.6052 32.3563C95.2132 31.7242 95.5172 30.8998 95.5172 29.883C95.5172 28.8525 95.2132 28.0213 94.6052 27.3892C94.0114 26.7572 93.2479 26.4411 92.3147 26.4411C91.3957 26.4411 90.6322 26.7572 90.0242 27.3892C89.4304 28.0213 89.1335 28.8525 89.1335 29.883Z" fill="#EEFF41"/>
<path d="M104.684 33.0364V35.1593C104.373 35.2417 103.935 35.283 103.369 35.283C101.22 35.283 100.146 34.2318 100.146 32.1296V26.4823H98.4701V24.5244H100.146V21.742H102.669V24.5244H104.727V26.4823H102.669V31.8823C102.669 32.7204 103.079 33.1395 103.899 33.1395L104.684 33.0364Z" fill="#EEFF41"/>
</svg>
